<svg width="200" height="200" viewBox="0 0 200 200" fill="none" xmlns="http://www.w3.org/2000/svg">
<g clip-path="url(#clip0_1_3)">
<rect width="200" height="200" fill="#131313"/>
<path d="M114.866 -28C125.451 -17.4154 134.484 -5.49763 144.53 5.59634C161.701 24.5582 182.258 41.0113 202.095 57.0895C218.461 70.3546 237.677 79.6636 255.092 91.4087C257.861 93.2764 260.63 95.2699 263.679 96.6418C267.302 98.2723 265.675 98.5981 262.436 97.9429C252.48 95.9294 243.183 94.8203 233.003 94.8203C220.918 94.8203 208.808 94.4053 196.804 93.0278C162.761 89.1211 128.808 84.5972 94.8587 79.728C73.1341 76.6121 51.3645 73.6419 29.7477 69.8399C14.4539 67.1501 -1.2835 65.879 -16.2521 61.5131C-17.9996 61.0035 -24.3843 60.6647 -21.0516 58.593C-14.8695 54.75 -8.01156 52.0074 -1.76694 48.2423C11.1355 40.4629 21.824 28.1034 30.6729 16.1205C33.6809 12.0471 36.8408 8.08132 39.2888 3.63029C39.5987 3.06687 43.42 -3.66239 43.4522 -3.59784C44.3128 -1.87664 43.5679 1.79256 43.5679 3.74594C43.5679 5.66875 43.4004 7.64682 43.8281 9.52843C44.9626 14.5203 45.3705 19.6013 46.7193 24.5919C49.6548 35.4532 54.7421 46.0707 60.3371 55.7885C69.5149 71.7288 81.7573 87.2473 94.5406 100.487C106.16 112.522 117.482 125.213 130.305 135.992C144.723 148.111 159.379 159.935 173.963 171.843C184.125 180.14 195.411 187.324 206.866 193.701C209.14 194.967 213.196 198.902 213.631 194.742C214.396 187.438 212.607 180.03 209.352 173.52C206.295 167.407 202.164 164.36 195.243 164.066C179.347 163.389 164.628 167.828 149.735 172.884C134.577 178.03 119.523 184.127 105.383 191.619C94.9566 197.144 83.5821 203.196 72.0178 205.902C53.8923 210.144 38.5275 198.886 27.9551 184.854C19.2385 173.285 9.93248 162.396 -1.6802 153.686C-3.60562 152.242 -5.98179 150.664 -8.21443 149.754C-10.4134 148.858 -12.6176 148.424 -8.87942 148.424C3.25636 148.424 14.4841 145.525 25.8734 141.659C57.2426 131.01 87.5918 115.607 112.264 93.3747C131.924 75.6589 149.2 55.1755 164.249 33.4391C169.808 25.4091 174.435 16.5839 178.358 7.64912C178.802 6.63852 186.481 -7.66017 185.297 -8.62862C183.68 -9.95164 176.5 -7.47775 174.715 -7.18299C169.328 -6.29343 164.145 -6.14214 158.697 -6.14214C145.423 -6.14214 131.443 -7.89191 118.48 -10.8549C105.89 -13.7327 93.6949 -18.3595 81.1541 -21.4947C78.5615 -22.1429 77.8239 -22.5282 76.3547 -19.9045C73.978 -15.6605 74.4271 -9.63702 75.5451 -5.10129C79.5057 10.9672 90.8267 25.8 101.855 37.6892C115.528 52.4288 128.387 68.284 143.547 81.5495C157.901 94.1091 174.362 105.511 191.918 113.035C199.169 116.143 206.571 118.577 214.21 120.552C216.745 121.208 219.276 121.878 221.842 122.403C222.268 122.49 226.122 122.922 223.924 122.519C214.618 120.809 205.841 122.293 197.267 126.161C184.575 131.887 173.519 138.038 165.897 150.275C153.441 170.269 149.735 192.548 149.735 215.819C149.735 219.635 150.255 223.396 150.255 227.211C150.255 229.309 150.627 225.433 150.486 224.609C148.594 213.524 147.231 202.654 143.258 192.024C139.246 181.29 132.419 171.16 125.911 161.84C118.096 150.649 108.409 140.728 97.403 132.609C79.5589 119.445 59.2008 109.243 37.8432 103.263C29.7394 100.994 21.6931 99.5042 13.2676 99.5042C7.44456 99.5042 1.5937 99.2901 -4.19559 100.025C-6.71412 100.344 -9.24303 100.701 -11.7128 101.297C-12.9247 101.589 -13.2399 101.682 -11.7996 101.557C10.7776 99.5937 33.8762 90.5079 52.4151 77.5307C60.5517 71.8351 68.6859 65.6151 76.3547 59.3158C82.6193 54.1698 89.4353 48.7002 94.078 41.9683C107.787 22.0904 117.468 -0.452963 117.468 -24.8774" stroke="#191919" stroke-width="3" stroke-linecap="round"/>
</g>
<defs>
<clipPath id="clip0_1_3">
<rect width="200" height="200" fill="white"/>
</clipPath>
</defs>
</svg>
